G04*
G04 #@! TF.GenerationSoftware,Altium Limited,Altium Designer,26.8.1 (31)*
G04*
G04 Layer_Color=16711935*
G04 Board_Origin=0|0*
%FSLAX25Y25*%
%MOIN*%
G70*
G04*
G04 #@! TF.SameCoordinates,246FC37B-2184-40DC-ABD8-547541A9BF45*
G04*
G04*
G04 #@! TF.FilePolarity,Positive*
G04*
G01*
G75*
%ADD26C,0.00394*%
D26*
X214850Y394425D02*
X221150D01*
X214850D02*
Y397575D01*
X221150D01*
Y394425D02*
Y397575D01*
X220098Y394425D02*
X221150Y395476D01*
X398146Y382323D02*
Y397677D01*
X378854Y382323D02*
X398146D01*
X378854D02*
Y397677D01*
X398146D01*
X393146D02*
X398146Y392677D01*
X373575Y386850D02*
Y393150D01*
X370425Y386850D02*
X373575D01*
X370425D02*
Y393150D01*
X373575D01*
X367075Y386850D02*
Y393150D01*
X363925Y386850D02*
X367075D01*
X363925D02*
Y393150D01*
X367075D01*
X383075Y364850D02*
Y371150D01*
X379925Y364850D02*
X383075D01*
X379925D02*
Y371150D01*
X383075D01*
X389425Y365350D02*
Y371650D01*
X392575D01*
Y365350D02*
Y371650D01*
X389425Y365350D02*
X392575D01*
M02*
